<svg xmlns="http://www.w3.org/2000/svg" xmlns:xlink="http://www.w3.org/1999/xlink" version="1.1" width="1000" height="1000" viewBox="0 0 1000 1000" xml:space="preserve">
<desc>Created with Fabric.js 3.5.0</desc>
<defs>
</defs>
<rect x="0" y="0" width="100%" height="100%" fill="rgba(255,255,255,0)"/>
<g transform="matrix(2.7778 0 0 2.7778 500.012 655.4987)" id="224013">
<g style="" vector-effect="non-scaling-stroke">
		<g transform="matrix(1 0 0 1 -150.5 -71.0679)">
<path style="stroke: none; stroke-width: 1; stroke-dasharray: none; stroke-linecap: butt; stroke-dashoffset: 0; stroke-linejoin: miter; stroke-miterlimit: 4; is-custom-font: none; font-file-url: none; fill: rgb(106,169,100); fill-rule: evenodd; opacity: 0.849;" transform=" translate(-389.5, -468.932)" d="M 380.5 419.5 C 381.434 420.568 381.768 421.901 381.5 423.5 C 379.833 423.5 378.167 423.5 376.5 423.5 C 379.368 454.181 382.368 484.847 385.5 515.5 C 391.5 515.5 397.5 515.5 403.5 515.5 C 403.5 514.167 403.5 512.833 403.5 511.5 C 405.167 511.5 406.833 511.5 408.5 511.5 C 408.5 513.833 408.5 516.167 408.5 518.5 C 399.167 518.5 389.833 518.5 380.5 518.5 C 377.723 485.898 374.39 453.398 370.5 421 C 373.619 419.595 376.952 419.095 380.5 419.5 Z" stroke-linecap="round"/>
</g>
		<g transform="matrix(1 0 0 1 -137.0183 -100.549)">
<path style="stroke: none; stroke-width: 1; stroke-dasharray: none; stroke-linecap: butt; stroke-dashoffset: 0; stroke-linejoin: miter; stroke-miterlimit: 4; is-custom-font: none; font-file-url: none; fill: rgb(106,170,100); fill-rule: evenodd; opacity: 0.839;" transform=" translate(-402.9816, -439.451)" d="M 408.5 419.5 C 408.567 420.959 408.234 422.292 407.5 423.5 C 406.167 423.5 404.833 423.5 403.5 423.5 C 402.5 435.5 401.5 447.5 400.5 459.5 C 399.833 457.167 399.167 454.833 398.5 452.5 C 398.821 447.305 398.487 442.305 397.5 437.5 C 397.325 435.379 397.659 433.379 398.5 431.5 C 398.335 427.818 398.501 424.152 399 420.5 C 402.057 419.549 405.223 419.216 408.5 419.5 Z" stroke-linecap="round"/>
</g>
		<g transform="matrix(1 0 0 1 -107.5 -101)">
<path style="stroke: none; stroke-width: 1; stroke-dasharray: none; stroke-linecap: butt; stroke-dashoffset: 0; stroke-linejoin: miter; stroke-miterlimit: 4; is-custom-font: none; font-file-url: none; fill: rgb(106,170,100); fill-rule: evenodd; opacity: 0.828;" transform=" translate(-432.5, -439)" d="M 437.5 419.5 C 437.5 420.833 437.5 422.167 437.5 423.5 C 435.549 423.227 434.049 423.893 433 425.5 C 432.152 436.684 430.986 447.684 429.5 458.5 C 429.048 453.002 428.381 447.669 427.5 442.5 C 427.5 440.833 427.5 439.167 427.5 437.5 C 427.5 435.5 427.5 433.5 427.5 431.5 C 427.833 427.5 428.167 423.5 428.5 419.5 C 431.5 419.5 434.5 419.5 437.5 419.5 Z" stroke-linecap="round"/>
</g>
		<g transform="matrix(1 0 0 1 -68.5313 -70.5578)">
<path style="stroke: none; stroke-width: 1; stroke-dasharray: none; stroke-linecap: butt; stroke-dashoffset: 0; stroke-linejoin: miter; stroke-miterlimit: 4; is-custom-font: none; font-file-url: none; fill: rgb(107,170,101); fill-rule: evenodd; opacity: 0.81;" transform=" translate(-471.4687, -469.4422)" d="M 469.5 418.5 C 465.878 420.787 462.545 423.453 459.5 426.5 C 455.939 429.253 453.772 432.92 453 437.5 C 452.333 458.833 452.333 480.167 453 501.5 C 456.009 511.67 462.842 516.67 473.5 516.5 C 477.579 516.566 481.245 515.566 484.5 513.5 C 485.492 513.672 486.158 513.338 486.5 512.5 C 489.648 511.424 492.648 510.091 495.5 508.5 C 493.357 513.421 489.69 516.755 484.5 518.5 C 472.252 522.484 461.419 520.151 452 511.5 C 450.107 508.382 448.774 505.049 448 501.5 C 447.5 490.172 447.333 478.838 447.5 467.5 C 447.415 458.107 448.082 448.773 449.5 439.5 C 449.332 435.342 449.998 431.342 451.5 427.5 C 456.127 421.853 462.127 418.853 469.5 418.5 Z" stroke-linecap="round"/>
</g>
		<g transform="matrix(1 0 0 1 -34.5 -80.1443)">
<path style="stroke: none; stroke-width: 1; stroke-dasharray: none; stroke-linecap: butt; stroke-dashoffset: 0; stroke-linejoin: miter; stroke-miterlimit: 4; is-custom-font: none; font-file-url: none; fill: rgb(105,169,99); fill-rule: evenodd; opacity: 0.83;" transform=" translate(-505.5, -459.8557)" d="M 510.5 419.5 C 510.5 420.833 510.5 422.167 510.5 423.5 C 508.833 423.5 507.167 423.5 505.5 423.5 C 505.5 443.167 505.5 462.833 505.5 482.5 C 505.5 486.833 505.5 491.167 505.5 495.5 C 504.71 496.609 504.21 497.942 504 499.5 C 503.23 500.598 502.397 500.598 501.5 499.5 C 501.167 499.5 500.833 499.5 500.5 499.5 C 501.148 497.914 501.648 496.247 502 494.5 C 502.829 474.996 502.662 455.662 501.5 436.5 C 501.5 431.167 501.5 425.833 501.5 420.5 C 504.287 419.523 507.287 419.19 510.5 419.5 Z" stroke-linecap="round"/>
</g>
		<g transform="matrix(1 0 0 1 25.5 -70.9898)">
<path style="stroke: none; stroke-width: 1; stroke-dasharray: none; stroke-linecap: butt; stroke-dashoffset: 0; stroke-linejoin: miter; stroke-miterlimit: 4; is-custom-font: none; font-file-url: none; fill: rgb(105,167,100); fill-rule: evenodd; opacity: 0.857;" transform=" translate(-565.5, -469.0102)" d="M 563.5 419.5 C 564.686 420.705 564.686 422.039 563.5 423.5 C 562.167 423.5 560.833 423.5 559.5 423.5 C 559.5 454.167 559.5 484.833 559.5 515.5 C 567.507 515.666 575.507 515.5 583.5 515 C 587.042 514.879 590.042 513.713 592.5 511.5 C 597.09 510.539 601.09 508.539 604.5 505.5 C 601.544 511.996 596.544 516.163 589.5 518 C 570.158 518.833 550.825 518.666 531.5 517.5 C 530.972 515.664 530.306 513.997 529.5 512.5 C 529.666 502.161 529.5 491.828 529 481.5 C 528.292 480.619 527.458 479.953 526.5 479.5 C 526.5 478.167 526.5 476.833 526.5 475.5 C 530.65 475.487 533.15 477.487 534 481.5 C 534.953 492.827 535.453 504.16 535.5 515.5 C 540.179 515.666 544.845 515.499 549.5 515 C 548.663 513.989 548.33 512.822 548.5 511.5 C 550.167 511.5 551.833 511.5 553.5 511.5 C 553.833 515.5 554.167 515.5 554.5 511.5 C 555.376 511.631 556.043 511.298 556.5 510.5 C 555.855 499.705 555.188 489.038 554.5 478.5 C 554.5 476.833 554.5 475.167 554.5 473.5 C 554.5 467.5 554.5 461.5 554.5 455.5 C 554.5 449.833 554.5 444.167 554.5 438.5 C 554.5 436.167 554.5 433.833 554.5 431.5 C 554.5 427.5 554.5 423.5 554.5 419.5 C 557.5 419.5 560.5 419.5 563.5 419.5 Z" stroke-linecap="round"/>
</g>
		<g transform="matrix(1 0 0 1 114.5 -71)">
<path style="stroke: none; stroke-width: 1; stroke-dasharray: none; stroke-linecap: butt; stroke-dashoffset: 0; stroke-linejoin: miter; stroke-miterlimit: 4; is-custom-font: none; font-file-url: none; fill: rgb(107,170,101); fill-rule: evenodd; opacity: 0.958;" transform=" translate(-654.5, -469)" d="M 617.5 419.5 C 617.5 420.833 617.5 422.167 617.5 423.5 C 615.833 423.5 614.167 423.5 612.5 423.5 C 612.5 454.167 612.5 484.833 612.5 515.5 C 624.833 515.5 637.167 515.5 649.5 515.5 C 649.5 514.167 649.5 512.833 649.5 511.5 C 651.833 511.5 654.167 511.5 656.5 511.5 C 656.5 506.833 656.5 502.167 656.5 497.5 C 655.5 497.5 654.5 497.5 653.5 497.5 C 653.5 471.5 653.5 445.5 653.5 419.5 C 656.5 419.5 659.5 419.5 662.5 419.5 C 663.686 420.705 663.686 422.039 662.5 423.5 C 661.167 423.5 659.833 423.5 658.5 423.5 C 658.5 454.167 658.5 484.833 658.5 515.5 C 671.167 515.5 683.833 515.5 696.5 515.5 C 696.5 514.167 696.5 512.833 696.5 511.5 C 698.167 511.5 699.833 511.5 701.5 511.5 C 701.5 513.833 701.5 516.167 701.5 518.5 C 670.167 518.5 638.833 518.5 607.5 518.5 C 607.5 512.5 607.5 506.5 607.5 500.5 C 608.372 494.211 608.705 487.878 608.5 481.5 C 608.5 474.167 608.5 466.833 608.5 459.5 C 608.827 450.318 608.493 441.318 607.5 432.5 C 607.5 431.5 607.5 430.5 607.5 429.5 C 607.5 426.167 607.5 422.833 607.5 419.5 C 610.833 419.5 614.167 419.5 617.5 419.5 Z M 617.5 423.5 C 617.5 428.833 617.5 434.167 617.5 439.5 C 617.5 446.5 617.5 453.5 617.5 460.5 C 617.5 467.167 617.5 473.833 617.5 480.5 C 617.5 490.833 617.5 501.167 617.5 511.5 C 628.167 511.5 638.833 511.5 649.5 511.5 C 649.5 512.833 649.5 514.167 649.5 515.5 C 637.167 515.5 624.833 515.5 612.5 515.5 C 612.5 484.833 612.5 454.167 612.5 423.5 C 614.167 423.5 615.833 423.5 617.5 423.5 Z" stroke-linecap="round"/>
</g>
		<g transform="matrix(1 0 0 1 -150.5 -111.5592)">
<path style="stroke: none; stroke-width: 1; stroke-dasharray: none; stroke-linecap: butt; stroke-dashoffset: 0; stroke-linejoin: miter; stroke-miterlimit: 4; is-custom-font: none; font-file-url: none; fill: rgb(222,236,221); fill-rule: evenodd; opacity: 0.917;" transform=" translate(-389.5, -428.4408)" d="M 380.5 419.5 C 385.64 418.512 390.974 418.179 396.5 418.5 C 396.28 423.1 396.946 427.433 398.5 431.5 C 397.659 433.379 397.325 435.379 397.5 437.5 C 392.5 438.833 387.5 438.833 382.5 437.5 C 381.873 432.859 381.54 428.193 381.5 423.5 C 381.768 421.901 381.434 420.568 380.5 419.5 Z" stroke-linecap="round"/>
</g>
		<g transform="matrix(1 0 0 1 -96.5 -108.5274)">
<path style="stroke: none; stroke-width: 1; stroke-dasharray: none; stroke-linecap: butt; stroke-dashoffset: 0; stroke-linejoin: miter; stroke-miterlimit: 4; is-custom-font: none; font-file-url: none; fill: rgb(219,234,218); fill-rule: evenodd; opacity: 0.937;" transform=" translate(-443.5, -431.4725)" d="M 451.5 427.5 C 449.998 431.342 449.332 435.342 449.5 439.5 C 448.766 440.878 448.099 442.378 447.5 444 C 443.514 444.499 439.514 444.666 435.5 444.5 C 435.808 437.446 436.475 430.446 437.5 423.5 C 437.5 422.167 437.5 420.833 437.5 419.5 C 441.97 418.514 446.637 418.181 451.5 418.5 C 451.5 421.5 451.5 424.5 451.5 427.5 Z" stroke-linecap="round"/>
</g>
		<g transform="matrix(1 0 0 1 -61.0611 -108.5255)">
<path style="stroke: none; stroke-width: 1; stroke-dasharray: none; stroke-linecap: butt; stroke-dashoffset: 0; stroke-linejoin: miter; stroke-miterlimit: 4; is-custom-font: none; font-file-url: none; fill: rgb(220,234,218); fill-rule: evenodd; opacity: 0.978;" transform=" translate(-478.939, -431.4744)" d="M 501.5 420.5 C 501.5 425.833 501.5 431.167 501.5 436.5 C 501.5 437.167 501.5 437.833 501.5 438.5 C 496.167 438.167 490.833 437.833 485.5 437.5 C 484.774 432.963 482.107 431.13 477.5 432 C 476.058 432.377 475.058 433.21 474.5 434.5 C 472.896 435.287 472.229 436.62 472.5 438.5 C 472.5 440.5 472.5 442.5 472.5 444.5 C 467.105 444.267 461.772 444.6 456.5 445.5 C 456.007 438.893 457.007 432.56 459.5 426.5 C 462.545 423.453 465.878 420.787 469.5 418.5 C 478.685 416.341 487.351 417.508 495.5 422 C 497.123 424.08 498.623 426.246 500 428.5 C 500.183 425.635 500.683 422.969 501.5 420.5 Z" stroke-linecap="round"/>
</g>
		<g transform="matrix(1 0 0 1 -7.5 -110.9449)">
<path style="stroke: none; stroke-width: 1; stroke-dasharray: none; stroke-linecap: butt; stroke-dashoffset: 0; stroke-linejoin: miter; stroke-miterlimit: 4; is-custom-font: none; font-file-url: none; fill: rgb(222,236,221); fill-rule: evenodd; opacity: 0.966;" transform=" translate(-532.5, -429.0551)" d="M 554.5 431.5 C 554.5 433.833 554.5 436.167 554.5 438.5 C 549.167 438.167 543.833 437.833 538.5 437.5 C 537.972 436.279 537.305 435.113 536.5 434 C 533.274 432.801 529.941 432.301 526.5 432.5 C 526.5 433.5 526.5 434.5 526.5 435.5 C 526.5 435.833 526.5 436.167 526.5 436.5 C 525.842 437.398 525.176 438.398 524.5 439.5 C 523.808 438.975 523.308 438.308 523 437.5 C 521.667 440.167 520.333 440.167 519 437.5 C 517.667 440.167 516.333 440.167 515 437.5 C 513.951 439.107 512.451 439.773 510.5 439.5 C 510.5 434.167 510.5 428.833 510.5 423.5 C 510.5 422.167 510.5 420.833 510.5 419.5 C 521.385 418.085 532.385 418.252 543.5 420 C 549.099 422.067 552.766 425.9 554.5 431.5 Z" stroke-linecap="round"/>
</g>
		<g transform="matrix(1 0 0 1 45.5466 -110.9983)">
<path style="stroke: none; stroke-width: 1; stroke-dasharray: none; stroke-linecap: butt; stroke-dashoffset: 0; stroke-linejoin: miter; stroke-miterlimit: 4; is-custom-font: none; font-file-url: none; fill: rgb(223,236,221); fill-rule: evenodd; opacity: 0.977;" transform=" translate(-585.5466, -429.0018)" d="M 563.5 419.5 C 572.991 418.342 582.658 418.175 592.5 419 C 599.319 420.062 604.319 423.562 607.5 429.5 C 607.5 430.5 607.5 431.5 607.5 432.5 C 607.819 434.75 607.319 436.75 606 438.5 C 601.558 437.928 597.058 437.595 592.5 437.5 C 589.419 433.04 585.086 431.373 579.5 432.5 C 579.5 433.5 579.5 434.5 579.5 435.5 C 579.5 435.833 579.5 436.167 579.5 436.5 C 578.596 437.209 578.263 438.209 578.5 439.5 C 576.876 439.64 575.71 438.973 575 437.5 C 573.667 440.167 572.333 440.167 571 437.5 C 569.667 440.167 568.333 440.167 567 437.5 C 566.29 438.973 565.124 439.64 563.5 439.5 C 563.5 434.167 563.5 428.833 563.5 423.5 C 564.686 422.039 564.686 420.705 563.5 419.5 Z" stroke-linecap="round"/>
</g>
		<g transform="matrix(1 0 0 1 143.1074 -111.5613)">
<path style="stroke: none; stroke-width: 1; stroke-dasharray: none; stroke-linecap: butt; stroke-dashoffset: 0; stroke-linejoin: miter; stroke-miterlimit: 4; is-custom-font: none; font-file-url: none; fill: rgb(224,237,222); fill-rule: evenodd; opacity: 0.976;" transform=" translate(-683.1074, -428.4387)" d="M 662.5 419.5 C 675.99 418.504 689.656 418.171 703.5 418.5 C 704.103 423.619 703.436 428.285 701.5 432.5 C 699.833 432.5 698.167 432.5 696.5 432.5 C 690.5 432.5 684.5 432.5 678.5 432.5 C 678.5 433.5 678.5 434.5 678.5 435.5 C 678.5 435.833 678.5 436.167 678.5 436.5 C 677.542 436.953 676.708 437.619 676 438.5 C 671.558 437.928 667.058 437.595 662.5 437.5 C 662.5 432.833 662.5 428.167 662.5 423.5 C 663.686 422.039 663.686 420.705 662.5 419.5 Z" stroke-linecap="round"/>
</g>
		<g transform="matrix(1 0 0 1 150 -104)">
<path style="stroke: none; stroke-width: 1; stroke-dasharray: none; stroke-linecap: butt; stroke-dashoffset: 0; stroke-linejoin: miter; stroke-miterlimit: 4; is-custom-font: none; font-file-url: none; fill: rgb(104,170,99); fill-rule: evenodd; opacity: 0.962;" transform=" translate(-690, -436)" d="M 696.5 432.5 C 698.167 432.5 699.833 432.5 701.5 432.5 C 701.5 434.833 701.5 437.167 701.5 439.5 C 693.833 439.5 686.167 439.5 678.5 439.5 C 678.5 438.5 678.5 437.5 678.5 436.5 C 678.5 436.167 678.5 435.833 678.5 435.5 C 684.5 435.5 690.5 435.5 696.5 435.5 C 696.5 434.5 696.5 433.5 696.5 432.5 Z" stroke-linecap="round"/>
</g>
		<g transform="matrix(1 0 0 1 -123 -111.5593)">
<path style="stroke: none; stroke-width: 1; stroke-dasharray: none; stroke-linecap: butt; stroke-dashoffset: 0; stroke-linejoin: miter; stroke-miterlimit: 4; is-custom-font: none; font-file-url: none; fill: rgb(221,235,220); fill-rule: evenodd; opacity: 0.968;" transform=" translate(-417, -428.4406)" d="M 427.5 431.5 C 427.5 433.5 427.5 435.5 427.5 437.5 C 420.957 438.066 414.457 438.4 408 438.5 C 407.722 437.584 407.222 436.918 406.5 436.5 C 407.08 432.19 407.414 427.857 407.5 423.5 C 408.234 422.292 408.567 420.959 408.5 419.5 C 413.975 418.511 419.642 418.178 425.5 418.5 C 425.976 422.993 426.642 427.327 427.5 431.5 Z" stroke-linecap="round"/>
</g>
		<g transform="matrix(1 0 0 1 85.5 -111.0591)">
<path style="stroke: none; stroke-width: 1; stroke-dasharray: none; stroke-linecap: butt; stroke-dashoffset: 0; stroke-linejoin: miter; stroke-miterlimit: 4; is-custom-font: none; font-file-url: none; fill: rgb(221,235,220); fill-rule: evenodd; opacity: 0.977;" transform=" translate(-625.5, -428.9409)" d="M 633.5 436.5 C 632.778 436.918 632.278 437.584 632 438.5 C 627.667 438.167 623.333 437.833 619 437.5 C 618.722 438.416 618.222 439.082 617.5 439.5 C 617.5 434.167 617.5 428.833 617.5 423.5 C 617.5 422.167 617.5 420.833 617.5 419.5 C 622.64 418.512 627.974 418.179 633.5 418.5 C 633.5 424.5 633.5 430.5 633.5 436.5 Z" stroke-linecap="round"/>
</g>
		<g transform="matrix(1 0 0 1 -62.998 -73.0001)">
<path style="stroke: none; stroke-width: 1; stroke-dasharray: none; stroke-linecap: butt; stroke-dashoffset: 0; stroke-linejoin: miter; stroke-miterlimit: 4; is-custom-font: none; font-file-url: none; fill: rgb(107,170,99); fill-rule: evenodd; opacity: 0.884;" transform=" translate(-477.002, -466.9999)" d="M 474.5 434.5 C 477.675 434.84 479.841 436.507 481 439.5 C 481.5 459.164 481.667 478.831 481.5 498.5 C 479.833 499.833 478.167 499.833 476.5 498.5 C 476.667 479.164 476.5 459.83 476 440.5 C 475.184 439.177 474.017 438.511 472.5 438.5 C 472.229 436.62 472.896 435.287 474.5 434.5 Z" stroke-linecap="round"/>
</g>
		<g transform="matrix(1 0 0 1 -9.441 -92.9774)">
<path style="stroke: none; stroke-width: 1; stroke-dasharray: none; stroke-linecap: butt; stroke-dashoffset: 0; stroke-linejoin: miter; stroke-miterlimit: 4; is-custom-font: none; font-file-url: none; fill: rgb(106,169,99); fill-rule: evenodd; opacity: 0.874;" transform=" translate(-530.559, -447.0226)" d="M 526.5 435.5 C 528.917 435.978 531.084 436.978 533 438.5 C 534.37 444.742 534.87 451.075 534.5 457.5 C 532.621 458.341 530.621 458.675 528.5 458.5 C 529.567 453.218 529.733 447.885 529 442.5 C 528.623 441.058 527.79 440.058 526.5 439.5 C 526.5 438.5 526.5 437.5 526.5 436.5 C 526.5 436.167 526.5 435.833 526.5 435.5 Z" stroke-linecap="round"/>
</g>
		<g transform="matrix(1 0 0 1 44.0313 -73.4575)">
<path style="stroke: none; stroke-width: 1; stroke-dasharray: none; stroke-linecap: butt; stroke-dashoffset: 0; stroke-linejoin: miter; stroke-miterlimit: 4; is-custom-font: none; font-file-url: none; fill: rgb(105,170,100); fill-rule: evenodd; opacity: 0.724;" transform=" translate(-584.0313, -466.5426)" d="M 579.5 435.5 C 583.992 435.306 586.825 437.306 588 441.5 C 588.5 460.164 588.667 478.83 588.5 497.5 C 586.585 497.784 584.919 497.451 583.5 496.5 C 583.667 478.164 583.5 459.83 583 441.5 C 582.184 440.177 581.017 439.511 579.5 439.5 C 579.5 438.5 579.5 437.5 579.5 436.5 C 579.5 436.167 579.5 435.833 579.5 435.5 Z" stroke-linecap="round"/>
</g>
		<g transform="matrix(1 0 0 1 -46.5 -91)">
<path style="stroke: none; stroke-width: 1; stroke-dasharray: none; stroke-linecap: butt; stroke-dashoffset: 0; stroke-linejoin: miter; stroke-miterlimit: 4; is-custom-font: none; font-file-url: none; fill: rgb(199,223,197); fill-rule: evenodd; opacity: 0.979;" transform=" translate(-493.5, -449)" d="M 485.5 437.5 C 490.833 437.833 496.167 438.167 501.5 438.5 C 501.5 445.833 501.5 453.167 501.5 460.5 C 496.5 460.5 491.5 460.5 486.5 460.5 C 486.799 452.747 486.466 445.08 485.5 437.5 Z" stroke-linecap="round"/>
</g>
		<g transform="matrix(1 0 0 1 -124 -94.5)">
<path style="stroke: none; stroke-width: 1; stroke-dasharray: none; stroke-linecap: butt; stroke-dashoffset: 0; stroke-linejoin: miter; stroke-miterlimit: 4; is-custom-font: none; font-file-url: none; fill: rgb(203,225,201); fill-rule: evenodd; opacity: 0.945;" transform=" translate(-416, -445.5)" d="M 406.5 436.5 C 407.222 436.918 407.722 437.584 408 438.5 C 414.457 438.4 420.957 438.066 427.5 437.5 C 427.5 439.167 427.5 440.833 427.5 442.5 C 427.5 446.5 427.5 450.5 427.5 454.5 C 419.833 454.5 412.167 454.5 404.5 454.5 C 405.345 448.537 406.012 442.537 406.5 436.5 Z" stroke-linecap="round"/>
</g>
		<g transform="matrix(1 0 0 1 85.5 -91.5)">
<path style="stroke: none; stroke-width: 1; stroke-dasharray: none; stroke-linecap: butt; stroke-dashoffset: 0; stroke-linejoin: miter; stroke-miterlimit: 4; is-custom-font: none; font-file-url: none; fill: rgb(198,222,196); fill-rule: evenodd; opacity: 0.904;" transform=" translate(-625.5, -448.5)" d="M 633.5 436.5 C 633.5 444.5 633.5 452.5 633.5 460.5 C 628.167 460.5 622.833 460.5 617.5 460.5 C 617.5 453.5 617.5 446.5 617.5 439.5 C 618.222 439.082 618.722 438.416 619 437.5 C 623.333 437.833 627.667 438.167 632 438.5 C 632.278 437.584 632.778 436.918 633.5 436.5 Z" stroke-linecap="round"/>
</g>
		<g transform="matrix(1 0 0 1 -149.441 -90)">
<path style="stroke: none; stroke-width: 1; stroke-dasharray: none; stroke-linecap: butt; stroke-dashoffset: 0; stroke-linejoin: miter; stroke-miterlimit: 4; is-custom-font: none; font-file-url: none; fill: rgb(196,221,193); fill-rule: evenodd; opacity: 0.985;" transform=" translate(-390.559, -450)" d="M 382.5 437.5 C 387.5 438.833 392.5 438.833 397.5 437.5 C 398.487 442.305 398.821 447.305 398.5 452.5 C 398.5 455.833 398.5 459.167 398.5 462.5 C 394.167 462.5 389.833 462.5 385.5 462.5 C 384.182 454.345 383.182 446.011 382.5 437.5 Z" stroke-linecap="round"/>
</g>
		<g transform="matrix(1 0 0 1 -7.5 -91.5)">
<path style="stroke: none; stroke-width: 1; stroke-dasharray: none; stroke-linecap: butt; stroke-dashoffset: 0; stroke-linejoin: miter; stroke-miterlimit: 4; is-custom-font: none; font-file-url: none; fill: rgb(198,222,196); fill-rule: evenodd; opacity: 0.961;" transform=" translate(-532.5, -448.5)" d="M 526.5 436.5 C 526.5 437.5 526.5 438.5 526.5 439.5 C 525.877 446.255 526.544 452.588 528.5 458.5 C 530.621 458.675 532.621 458.341 534.5 457.5 C 535.794 456.71 536.961 455.71 538 454.5 C 538.499 448.843 538.666 443.176 538.5 437.5 C 543.833 437.833 549.167 438.167 554.5 438.5 C 554.5 444.167 554.5 449.833 554.5 455.5 C 553.407 457.349 552.074 459.016 550.5 460.5 C 537.167 460.5 523.833 460.5 510.5 460.5 C 510.5 453.5 510.5 446.5 510.5 439.5 C 512.451 439.773 513.951 439.107 515 437.5 C 516.333 440.167 517.667 440.167 519 437.5 C 520.333 440.167 521.667 440.167 523 437.5 C 523.308 438.308 523.808 438.975 524.5 439.5 C 525.176 438.398 525.842 437.398 526.5 436.5 Z M 526.5 439.5 C 527.79 440.058 528.623 441.058 529 442.5 C 529.733 447.885 529.567 453.218 528.5 458.5 C 526.544 452.588 525.877 446.255 526.5 439.5 Z" stroke-linecap="round"/>
</g>
		<g transform="matrix(1 0 0 1 31.5 -91.4515)">
<path style="stroke: none; stroke-width: 1; stroke-dasharray: none; stroke-linecap: butt; stroke-dashoffset: 0; stroke-linejoin: miter; stroke-miterlimit: 4; is-custom-font: none; font-file-url: none; fill: rgb(198,222,196); fill-rule: evenodd; opacity: 0.952;" transform=" translate(-571.5, -448.5485)" d="M 579.5 436.5 C 579.5 437.5 579.5 438.5 579.5 439.5 C 579.5 446.167 579.5 452.833 579.5 459.5 C 574.26 460.449 568.927 460.782 563.5 460.5 C 563.5 453.5 563.5 446.5 563.5 439.5 C 565.124 439.64 566.29 438.973 567 437.5 C 568.333 440.167 569.667 440.167 571 437.5 C 572.333 440.167 573.667 440.167 575 437.5 C 575.71 438.973 576.876 439.64 578.5 439.5 C 578.263 438.209 578.596 437.209 579.5 436.5 Z" stroke-linecap="round"/>
</g>
		<g transform="matrix(1 0 0 1 60.5607 -93.4515)">
<path style="stroke: none; stroke-width: 1; stroke-dasharray: none; stroke-linecap: butt; stroke-dashoffset: 0; stroke-linejoin: miter; stroke-miterlimit: 4; is-custom-font: none; font-file-url: none; fill: rgb(198,222,196); fill-rule: evenodd; opacity: 0.928;" transform=" translate(-600.5607, -446.5485)" d="M 607.5 432.5 C 608.493 441.318 608.827 450.318 608.5 459.5 C 603.26 460.449 597.927 460.782 592.5 460.5 C 592.5 452.833 592.5 445.167 592.5 437.5 C 597.058 437.595 601.558 437.928 606 438.5 C 607.319 436.75 607.819 434.75 607.5 432.5 Z" stroke-linecap="round"/>
</g>
		<g transform="matrix(1 0 0 1 140.5 -91.5)">
<path style="stroke: none; stroke-width: 1; stroke-dasharray: none; stroke-linecap: butt; stroke-dashoffset: 0; stroke-linejoin: miter; stroke-miterlimit: 4; is-custom-font: none; font-file-url: none; fill: rgb(197,222,195); fill-rule: evenodd; opacity: 0.969;" transform=" translate(-680.5, -448.5)" d="M 678.5 436.5 C 678.5 437.5 678.5 438.5 678.5 439.5 C 678.5 445.167 678.5 450.833 678.5 456.5 C 685.167 456.5 691.833 456.5 698.5 456.5 C 698.5 457.833 698.5 459.167 698.5 460.5 C 686.5 460.5 674.5 460.5 662.5 460.5 C 662.5 452.833 662.5 445.167 662.5 437.5 C 667.058 437.595 671.558 437.928 676 438.5 C 676.708 437.619 677.542 436.953 678.5 436.5 Z" stroke-linecap="round"/>
</g>
		<g transform="matrix(1 0 0 1 -75.5 -84.5359)">
<path style="stroke: none; stroke-width: 1; stroke-dasharray: none; stroke-linecap: butt; stroke-dashoffset: 0; stroke-linejoin: miter; stroke-miterlimit: 4; is-custom-font: none; font-file-url: none; fill: rgb(192,219,189); fill-rule: evenodd; opacity: 0.949;" transform=" translate(-464.5, -455.464)" d="M 472.5 444.5 C 472.5 451.833 472.5 459.167 472.5 466.5 C 467.167 465.833 461.833 465.167 456.5 464.5 C 456.5 458.167 456.5 451.833 456.5 445.5 C 461.772 444.6 467.105 444.267 472.5 444.5 Z" stroke-linecap="round"/>
</g>
		<g transform="matrix(1 0 0 1 -115.5 -75)">
<path style="stroke: none; stroke-width: 1; stroke-dasharray: none; stroke-linecap: butt; stroke-dashoffset: 0; stroke-linejoin: miter; stroke-miterlimit: 4; is-custom-font: none; font-file-url: none; fill: rgb(179,211,175); fill-rule: evenodd; opacity: 0.965;" transform=" translate(-424.5, -465)" d="M 427.5 442.5 C 428.381 447.669 429.048 453.002 429.5 458.5 C 430.183 465.841 431.016 473.174 432 480.5 C 432.498 477.183 432.665 473.85 432.5 470.5 C 433.222 470.918 433.722 471.584 434 472.5 C 437.893 472.286 442.059 472.286 446.5 472.5 C 446.153 477.68 445.487 482.68 444.5 487.5 C 444.217 486.711 443.717 486.044 443 485.5 C 440.107 485.317 437.107 485.651 434 486.5 C 433.309 484.109 432.309 484.109 431 486.5 C 427.59 486.717 424.09 486.384 420.5 485.5 C 418.946 476.362 417.779 467.028 417 457.5 C 416.129 463.842 415.296 470.176 414.5 476.5 C 410.5 476.5 406.5 476.5 402.5 476.5 C 403.43 469.195 404.097 461.862 404.5 454.5 C 412.167 454.5 419.833 454.5 427.5 454.5 C 427.5 450.5 427.5 446.5 427.5 442.5 Z" stroke-linecap="round"/>
</g>
		<g transform="matrix(1 0 0 1 -99 -84)">
<path style="stroke: none; stroke-width: 1; stroke-dasharray: none; stroke-linecap: butt; stroke-dashoffset: 0; stroke-linejoin: miter; stroke-miterlimit: 4; is-custom-font: none; font-file-url: none; fill: rgb(187,216,184); fill-rule: evenodd; opacity: 0.964;" transform=" translate(-441, -456)" d="M 449.5 439.5 C 448.082 448.773 447.415 458.107 447.5 467.5 C 446.549 468.919 446.216 470.585 446.5 472.5 C 442.059 472.286 437.893 472.286 434 472.5 C 433.722 471.584 433.222 470.918 432.5 470.5 C 433.617 461.885 434.617 453.218 435.5 444.5 C 439.514 444.666 443.514 444.499 447.5 444 C 448.099 442.378 448.766 440.878 449.5 439.5 Z" stroke-linecap="round"/>
</g>
		<g transform="matrix(1 0 0 1 -7.4695 -62)">
<path style="stroke: none; stroke-width: 1; stroke-dasharray: none; stroke-linecap: butt; stroke-dashoffset: 0; stroke-linejoin: miter; stroke-miterlimit: 4; is-custom-font: none; font-file-url: none; fill: rgb(173,207,170); fill-rule: evenodd; opacity: 0.979;" transform=" translate(-532.5305, -478)" d="M 510.5 460.5 C 523.833 460.5 537.167 460.5 550.5 460.5 C 550.249 462.17 549.582 463.67 548.5 465 C 551.395 467.322 553.395 470.155 554.5 473.5 C 554.5 475.167 554.5 476.833 554.5 478.5 C 554.664 481.187 554.497 483.854 554 486.5 C 549.107 486.14 544.274 485.807 539.5 485.5 C 540.677 475.469 536.344 471.136 526.5 472.5 C 526.5 473.5 526.5 474.5 526.5 475.5 C 526.5 476.833 526.5 478.167 526.5 479.5 C 526.5 481.5 526.5 483.5 526.5 485.5 C 524.441 482.851 521.775 482.018 518.5 483 C 516.294 486.268 514.461 489.768 513 493.5 C 512.292 494.381 511.458 495.047 510.5 495.5 C 510.5 490.5 510.5 485.5 510.5 480.5 C 510.5 473.833 510.5 467.167 510.5 460.5 Z" stroke-linecap="round"/>
</g>
		<g transform="matrix(1 0 0 1 140.5982 -71)">
<path style="stroke: none; stroke-width: 1; stroke-dasharray: none; stroke-linecap: butt; stroke-dashoffset: 0; stroke-linejoin: miter; stroke-miterlimit: 4; is-custom-font: none; font-file-url: none; fill: rgb(181,212,178); fill-rule: evenodd; opacity: 0.928;" transform=" translate(-680.5982, -469)" d="M 662.5 460.5 C 674.5 460.5 686.5 460.5 698.5 460.5 C 699.069 464.329 698.402 467.663 696.5 470.5 C 694.833 470.5 693.167 470.5 691.5 470.5 C 687.167 470.5 682.833 470.5 678.5 470.5 C 678.5 471.5 678.5 472.5 678.5 473.5 C 678.5 473.833 678.5 474.167 678.5 474.5 C 673.882 476.087 669.049 477.087 664 477.5 C 663.617 476.944 663.117 476.611 662.5 476.5 C 662.5 471.167 662.5 465.833 662.5 460.5 Z" stroke-linecap="round"/>
</g>
		<g transform="matrix(1 0 0 1 147.5 -66)">
<path style="stroke: none; stroke-width: 1; stroke-dasharray: none; stroke-linecap: butt; stroke-dashoffset: 0; stroke-linejoin: miter; stroke-miterlimit: 4; is-custom-font: none; font-file-url: none; fill: rgb(107,171,102); fill-rule: evenodd; opacity: 0.855;" transform=" translate(-687.5, -474)" d="M 691.5 470.5 C 693.167 470.5 694.833 470.5 696.5 470.5 C 696.5 472.833 696.5 475.167 696.5 477.5 C 690.5 477.5 684.5 477.5 678.5 477.5 C 678.5 476.5 678.5 475.5 678.5 474.5 C 678.5 474.167 678.5 473.833 678.5 473.5 C 682.833 473.5 687.167 473.5 691.5 473.5 C 691.5 472.5 691.5 471.5 691.5 470.5 Z" stroke-linecap="round"/>
</g>
		<g transform="matrix(1 0 0 1 31.5 -70)">
<path style="stroke: none; stroke-width: 1; stroke-dasharray: none; stroke-linecap: butt; stroke-dashoffset: 0; stroke-linejoin: miter; stroke-miterlimit: 4; is-custom-font: none; font-file-url: none; fill: rgb(175,209,172); fill-rule: evenodd; opacity: 0.921;" transform=" translate(-571.5, -470)" d="M 579.5 459.5 C 579.5 466.5 579.5 473.5 579.5 480.5 C 574.167 480.5 568.833 480.5 563.5 480.5 C 563.5 473.833 563.5 467.167 563.5 460.5 C 568.927 460.782 574.26 460.449 579.5 459.5 Z" stroke-linecap="round"/>
</g>
		<g transform="matrix(1 0 0 1 60.5 -68.9524)">
<path style="stroke: none; stroke-width: 1; stroke-dasharray: none; stroke-linecap: butt; stroke-dashoffset: 0; stroke-linejoin: miter; stroke-miterlimit: 4; is-custom-font: none; font-file-url: none; fill: rgb(174,209,171); fill-rule: evenodd; opacity: 0.981;" transform=" translate(-600.5, -471.0476)" d="M 608.5 459.5 C 608.5 466.833 608.5 474.167 608.5 481.5 C 603.595 482.445 598.595 482.779 593.5 482.5 C 593.737 481.209 593.404 480.209 592.5 479.5 C 592.5 473.167 592.5 466.833 592.5 460.5 C 597.927 460.782 603.26 460.449 608.5 459.5 Z" stroke-linecap="round"/>
</g>
		<g transform="matrix(1 0 0 1 85.5 -69.4515)">
<path style="stroke: none; stroke-width: 1; stroke-dasharray: none; stroke-linecap: butt; stroke-dashoffset: 0; stroke-linejoin: miter; stroke-miterlimit: 4; is-custom-font: none; font-file-url: none; fill: rgb(175,209,172); fill-rule: evenodd; opacity: 0.912;" transform=" translate(-625.5, -470.5485)" d="M 617.5 460.5 C 622.833 460.5 628.167 460.5 633.5 460.5 C 633.5 466.833 633.5 473.167 633.5 479.5 C 628.26 480.449 622.927 480.782 617.5 480.5 C 617.5 473.833 617.5 467.167 617.5 460.5 Z" stroke-linecap="round"/>
</g>
		<g transform="matrix(1 0 0 1 -145.9784 -72)">
<path style="stroke: none; stroke-width: 1; stroke-dasharray: none; stroke-linecap: butt; stroke-dashoffset: 0; stroke-linejoin: miter; stroke-miterlimit: 4; is-custom-font: none; font-file-url: none; fill: rgb(174,208,170); fill-rule: evenodd; opacity: 0.972;" transform=" translate(-394.0216, -468)" d="M 398.5 452.5 C 399.167 454.833 399.833 457.167 400.5 459.5 C 400.518 467.037 401.185 474.371 402.5 481.5 C 402.631 482.239 402.464 482.906 402 483.5 C 397.263 482.531 392.43 482.197 387.5 482.5 C 386.187 476.041 385.521 469.374 385.5 462.5 C 389.833 462.5 394.167 462.5 398.5 462.5 C 398.5 459.167 398.5 455.833 398.5 452.5 Z" stroke-linecap="round"/>
</g>
		<g transform="matrix(1 0 0 1 -46 -68.5)">
<path style="stroke: none; stroke-width: 1; stroke-dasharray: none; stroke-linecap: butt; stroke-dashoffset: 0; stroke-linejoin: miter; stroke-miterlimit: 4; is-custom-font: none; font-file-url: none; fill: rgb(174,208,171); fill-rule: evenodd; opacity: 0.978;" transform=" translate(-494, -471.5)" d="M 486.5 460.5 C 491.5 460.5 496.5 460.5 501.5 460.5 C 501.5 467.833 501.5 475.167 501.5 482.5 C 496.5 482.5 491.5 482.5 486.5 482.5 C 486.5 475.167 486.5 467.833 486.5 460.5 Z" stroke-linecap="round"/>
</g>
		<g transform="matrix(1 0 0 1 -13.5027 -4.4989)">
<path style="stroke: none; stroke-width: 1; stroke-dasharray: none; stroke-linecap: butt; stroke-dashoffset: 0; stroke-linejoin: miter; stroke-miterlimit: 4; is-custom-font: none; font-file-url: none; fill: rgb(3,3,1); fill-rule: evenodd; opacity: 0.123;" transform=" translate(-526.4972, -535.5011)" d="M 526.5 479.5 C 527.458 479.953 528.292 480.619 529 481.5 C 529.5 491.828 529.666 502.161 529.5 512.5 C 526.682 514.581 526.015 517.248 527.5 520.5 C 530.45 521.488 533.45 522.321 536.5 523 C 537.927 524.797 539.76 525.964 542 526.5 C 554.952 523.512 567.785 523.846 580.5 527.5 C 585.901 525.003 591.235 523.003 596.5 521.5 C 603.522 519.622 610.022 520.622 616 524.5 C 618.778 529.61 621.111 534.943 623 540.5 C 623.75 541.126 624.584 541.626 625.5 542 C 624.058 542.377 623.058 543.21 622.5 544.5 C 610.44 552.867 597.107 556.533 582.5 555.5 C 590.318 552.835 597.984 549.668 605.5 546 C 610.139 542.545 613.139 538.045 614.5 532.5 C 614.248 530.927 613.582 529.594 612.5 528.5 C 612.5 527.833 612.167 527.5 611.5 527.5 C 611.5 526.833 611.167 526.5 610.5 526.5 C 609.833 525.167 609.167 525.167 608.5 526.5 C 605.883 525.621 603.216 525.788 600.5 527 C 596.099 528.91 592.099 531.41 588.5 534.5 C 587.914 534.291 587.414 533.957 587 533.5 C 582.838 538.481 578.672 543.481 574.5 548.5 C 572.216 558.541 575.883 562.541 585.5 560.5 C 586.47 561.629 587.636 562.629 589 563.5 C 592.149 562.394 594.982 561.061 597.5 559.5 C 607.177 557.611 615.844 553.611 623.5 547.5 C 623.833 547.5 624.167 547.5 624.5 547.5 C 625.167 547.5 625.5 547.167 625.5 546.5 C 626.492 546.672 627.158 546.338 627.5 545.5 C 628.167 545.5 628.5 545.167 628.5 544.5 C 629.117 544.611 629.617 544.944 630 545.5 C 630.334 549.199 630.501 552.699 630.5 556 C 628.671 558.659 626.671 561.159 624.5 563.5 C 612.836 571.674 599.836 576.84 585.5 579 C 584.671 580.816 583.837 582.649 583 584.5 C 573.284 593.114 562.951 593.78 552 586.5 C 549.72 582.911 547.22 579.578 544.5 576.5 C 541.693 578.446 538.693 579.946 535.5 581 C 519.129 585.224 502.462 588.391 485.5 590.5 C 483.267 589.385 481.101 589.385 479 590.5 C 476.395 588.14 473.895 585.64 471.5 583 C 470 582.833 468.5 582.667 467 582.5 C 462.625 583.842 458.125 585.008 453.5 586 C 448.833 586.667 444.167 586.667 439.5 586 C 435.68 585.15 432.347 583.483 429.5 581 C 424.698 575.118 422.365 568.284 422.5 560.5 C 424.739 557.909 426.239 554.909 427 551.5 C 429.765 548.403 432.265 545.069 434.5 541.5 C 438.795 539.809 442.461 537.309 445.5 534 C 452.023 531.964 458.357 529.798 464.5 527.5 C 468.531 528.379 472.531 529.379 476.5 530.5 C 477.938 530.281 479.271 529.781 480.5 529 C 481.158 527.095 482.325 525.595 484 524.5 C 484.495 522.527 484.662 520.527 484.5 518.5 C 489.69 516.755 493.357 513.421 495.5 508.5 C 497.924 505.992 499.59 502.992 500.5 499.5 C 500.833 499.5 501.167 499.5 501.5 499.5 C 501.5 503.167 501.5 506.833 501.5 510.5 C 500.044 513.247 498.711 516.08 497.5 519 C 497.645 519.772 497.978 520.439 498.5 521 C 494.405 527.845 490.239 534.679 486 541.5 C 485.086 545.142 484.252 548.808 483.5 552.5 C 481.678 551.571 480.345 552.238 479.5 554.5 C 468.757 560.02 457.424 562.687 445.5 562.5 C 444.337 560.45 444.504 558.45 446 556.5 C 451.651 551.507 457.817 547.34 464.5 544 C 468.524 543.391 472.524 543.558 476.5 544.5 C 480.721 544.295 482.054 542.295 480.5 538.5 C 478.972 537.139 477.305 535.972 475.5 535 C 470.096 534.228 464.762 534.561 459.5 536 C 453.577 538.876 448.077 542.376 443 546.5 C 430.89 563.437 435.39 570.937 456.5 569 C 457.893 566.317 459.226 566.15 460.5 568.5 C 465.966 564.86 471.8 561.86 478 559.5 C 478.5 559.833 479 560.167 479.5 560.5 C 477.799 564.742 479.299 566.742 484 566.5 C 488.858 566.493 493.025 564.827 496.5 561.5 C 495.667 561.167 494.833 560.833 494 560.5 C 491.266 561.796 488.433 562.296 485.5 562 C 493.812 547.196 502.479 532.696 511.5 518.5 C 515.5 518.5 519.5 518.5 523.5 518.5 C 523.5 516.167 523.5 513.833 523.5 511.5 C 524.5 511.5 525.5 511.5 526.5 511.5 C 526.5 505.167 526.5 498.833 526.5 492.5 C 527.159 490.862 527.826 489.195 528.5 487.5 C 528.145 486.478 527.478 485.811 526.5 485.5 C 526.5 483.5 526.5 481.5 526.5 479.5 Z" stroke-linecap="round"/>
</g>
		<g transform="matrix(1 0 0 1 -32.055 -48.0056)">
<path style="stroke: none; stroke-width: 1; stroke-dasharray: none; stroke-linecap: butt; stroke-dashoffset: 0; stroke-linejoin: miter; stroke-miterlimit: 4; is-custom-font: none; font-file-url: none; fill: rgb(1,1,0); fill-rule: evenodd; opacity: 0.097;" transform=" translate(-507.9451, -491.9943)" d="M 510.5 480.5 C 510.5 485.5 510.5 490.5 510.5 495.5 C 508.733 497.938 507.399 500.605 506.5 503.5 C 505.527 501.052 505.194 498.385 505.5 495.5 C 505.5 491.167 505.5 486.833 505.5 482.5 C 506.82 481.058 508.486 480.392 510.5 480.5 Z" stroke-linecap="round"/>
</g>
		<g transform="matrix(1 0 0 1 -75.5 -64.5)">
<path style="stroke: none; stroke-width: 1; stroke-dasharray: none; stroke-linecap: butt; stroke-dashoffset: 0; stroke-linejoin: miter; stroke-miterlimit: 4; is-custom-font: none; font-file-url: none; fill: rgb(170,206,166); fill-rule: evenodd; opacity: 0.93;" transform=" translate(-464.5, -475.5)" d="M 456.5 464.5 C 461.833 465.167 467.167 465.833 472.5 466.5 C 472.5 473.167 472.5 479.833 472.5 486.5 C 467.322 485.705 461.988 485.705 456.5 486.5 C 456.5 479.167 456.5 471.833 456.5 464.5 Z" stroke-linecap="round"/>
</g>
		<g transform="matrix(1 0 0 1 -113.5 -40)">
<path style="stroke: none; stroke-width: 1; stroke-dasharray: none; stroke-linecap: butt; stroke-dashoffset: 0; stroke-linejoin: miter; stroke-miterlimit: 4; is-custom-font: none; font-file-url: none; fill: rgb(106,170,100); fill-rule: evenodd; opacity: 0.885;" transform=" translate(-426.5, -500)" d="M 414.5 481.5 C 415.833 492.833 417.167 504.167 418.5 515.5 C 424.167 515.5 429.833 515.5 435.5 515.5 C 435.5 514.167 435.5 512.833 435.5 511.5 C 437.167 511.5 438.833 511.5 440.5 511.5 C 440.007 513.806 439.674 516.139 439.5 518.5 C 430.833 518.5 422.167 518.5 413.5 518.5 C 412.947 513.518 412.613 508.518 412.5 503.5 C 412.5 501.167 412.5 498.833 412.5 496.5 C 412.608 491.29 413.275 486.29 414.5 481.5 Z" stroke-linecap="round"/>
</g>
		<g transform="matrix(1 0 0 1 -139 -51.447)">
<path style="stroke: none; stroke-width: 1; stroke-dasharray: none; stroke-linecap: butt; stroke-dashoffset: 0; stroke-linejoin: miter; stroke-miterlimit: 4; is-custom-font: none; font-file-url: none; fill: rgb(156,199,152); fill-rule: evenodd; opacity: 0.988;" transform=" translate(-401, -488.553)" d="M 402.5 476.5 C 406.5 476.5 410.5 476.5 414.5 476.5 C 414.5 478.167 414.5 479.833 414.5 481.5 C 413.275 486.29 412.608 491.29 412.5 496.5 C 411.566 497.568 411.232 498.901 411.5 500.5 C 403.747 500.799 396.08 500.466 388.5 499.5 C 387.968 493.848 387.635 488.181 387.5 482.5 C 392.43 482.197 397.263 482.531 402 483.5 C 402.464 482.906 402.631 482.239 402.5 481.5 C 402.5 479.833 402.5 478.167 402.5 476.5 Z" stroke-linecap="round"/>
</g>
		<g transform="matrix(1 0 0 1 -107.5 -41.8966)">
<path style="stroke: none; stroke-width: 1; stroke-dasharray: none; stroke-linecap: butt; stroke-dashoffset: 0; stroke-linejoin: miter; stroke-miterlimit: 4; is-custom-font: none; font-file-url: none; fill: rgb(149,194,145); fill-rule: evenodd; opacity: 0.953;" transform=" translate(-432.5, -498.1034)" d="M 444.5 487.5 C 444.331 494.187 443.831 500.854 443 507.5 C 442.878 509.437 442.045 510.77 440.5 511.5 C 438.833 511.5 437.167 511.5 435.5 511.5 C 431.167 511.5 426.833 511.5 422.5 511.5 C 421.613 502.851 420.946 494.185 420.5 485.5 C 424.09 486.384 427.59 486.717 431 486.5 C 432.309 484.109 433.309 484.109 434 486.5 C 437.107 485.651 440.107 485.317 443 485.5 C 443.717 486.044 444.217 486.711 444.5 487.5 Z" stroke-linecap="round"/>
</g>
		<g transform="matrix(1 0 0 1 -60.5375 -64.8902)">
<path style="stroke: none; stroke-width: 1; stroke-dasharray: none; stroke-linecap: butt; stroke-dashoffset: 0; stroke-linejoin: miter; stroke-miterlimit: 4; is-custom-font: none; font-file-url: none; fill: rgb(147,193,143); fill-rule: evenodd; opacity: 0.976;" transform=" translate(-479.4626, -475.1098)" d="M 501.5 436.5 C 502.662 455.662 502.829 474.996 502 494.5 C 501.648 496.247 501.148 497.914 500.5 499.5 C 499.59 502.992 497.924 505.992 495.5 508.5 C 492.648 510.091 489.648 511.424 486.5 512.5 C 485.508 512.328 484.842 512.662 484.5 513.5 C 464.697 515.276 455.364 506.276 456.5 486.5 C 461.988 485.705 467.322 485.705 472.5 486.5 C 471.741 491.313 473.075 495.313 476.5 498.5 C 478.167 499.833 479.833 499.833 481.5 498.5 C 483.113 498.056 484.28 497.056 485 495.5 C 486.195 491.249 486.695 486.915 486.5 482.5 C 491.5 482.5 496.5 482.5 501.5 482.5 C 501.5 475.167 501.5 467.833 501.5 460.5 C 501.5 453.167 501.5 445.833 501.5 438.5 C 501.5 437.833 501.5 437.167 501.5 436.5 Z" stroke-linecap="round"/>
</g>
		<g transform="matrix(1 0 0 1 46.0293 -44.5)">
<path style="stroke: none; stroke-width: 1; stroke-dasharray: none; stroke-linecap: butt; stroke-dashoffset: 0; stroke-linejoin: miter; stroke-miterlimit: 4; is-custom-font: none; font-file-url: none; fill: rgb(150,195,145); fill-rule: evenodd; opacity: 0.966;" transform=" translate(-586.0293, -495.5)" d="M 592.5 479.5 C 593.404 480.209 593.737 481.209 593.5 482.5 C 598.595 482.779 603.595 482.445 608.5 481.5 C 608.705 487.878 608.372 494.211 607.5 500.5 C 606.263 501.965 605.263 503.632 604.5 505.5 C 601.09 508.539 597.09 510.539 592.5 511.5 C 582.833 511.5 573.167 511.5 563.5 511.5 C 563.5 501.167 563.5 490.833 563.5 480.5 C 568.833 480.5 574.167 480.5 579.5 480.5 C 579.5 486.167 579.5 491.833 579.5 497.5 C 580.959 497.567 582.292 497.234 583.5 496.5 C 584.919 497.451 586.585 497.784 588.5 497.5 C 589.794 496.71 590.961 495.71 592 494.5 C 592.499 489.511 592.666 484.511 592.5 479.5 Z" stroke-linecap="round"/>
</g>
		<g transform="matrix(1 0 0 1 -35.5138 -37)">
<path style="stroke: none; stroke-width: 1; stroke-dasharray: none; stroke-linecap: butt; stroke-dashoffset: 0; stroke-linejoin: miter; stroke-miterlimit: 4; is-custom-font: none; font-file-url: none; fill: rgb(91,127,72); fill-rule: evenodd; opacity: 0.993;" transform=" translate(-504.4862, -503)" d="M 505.5 495.5 C 505.194 498.385 505.527 501.052 506.5 503.5 C 508.182 506.29 507.682 508.623 505 510.5 C 505 509.167 505 507.833 505 506.5 C 504.051 508.093 502.885 509.426 501.5 510.5 C 501.5 506.833 501.5 503.167 501.5 499.5 C 502.397 500.598 503.23 500.598 504 499.5 C 504.21 497.942 504.71 496.609 505.5 495.5 Z" stroke-linecap="round"/>
</g>
		<g transform="matrix(1 0 0 1 -139.5 -36)">
<path style="stroke: none; stroke-width: 1; stroke-dasharray: none; stroke-linecap: butt; stroke-dashoffset: 0; stroke-linejoin: miter; stroke-miterlimit: 4; is-custom-font: none; font-file-url: none; fill: rgb(140,189,135); fill-rule: evenodd; opacity: 0.952;" transform=" translate(-400.5, -504)" d="M 412.5 496.5 C 412.5 498.833 412.5 501.167 412.5 503.5 C 411.527 505.948 411.194 508.615 411.5 511.5 C 410.5 511.5 409.5 511.5 408.5 511.5 C 406.833 511.5 405.167 511.5 403.5 511.5 C 398.833 511.5 394.167 511.5 389.5 511.5 C 389.693 507.434 389.36 503.434 388.5 499.5 C 396.08 500.466 403.747 500.799 411.5 500.5 C 411.232 498.901 411.566 497.568 412.5 496.5 Z" stroke-linecap="round"/>
</g>
		<g transform="matrix(1 0 0 1 -21 -34.5)">
<path style="stroke: none; stroke-width: 1; stroke-dasharray: none; stroke-linecap: butt; stroke-dashoffset: 0; stroke-linejoin: miter; stroke-miterlimit: 4; is-custom-font: none; font-file-url: none; fill: rgb(112,152,103); fill-rule: evenodd; opacity: 1;" transform=" translate(-519, -505.5)" d="M 526.5 492.5 C 526.5 498.833 526.5 505.167 526.5 511.5 C 525.5 511.5 524.5 511.5 523.5 511.5 C 523.5 513.833 523.5 516.167 523.5 518.5 C 519.5 518.5 515.5 518.5 511.5 518.5 C 512.512 517.128 513.512 515.795 514.5 514.5 C 515.919 515.451 517.585 515.784 519.5 515.5 C 519.5 514.167 519.5 512.833 519.5 511.5 C 518.167 511.5 516.833 511.5 515.5 511.5 C 518.917 504.995 522.584 498.662 526.5 492.5 Z" stroke-linecap="round"/>
</g>
		<g transform="matrix(1 0 0 1 7.9689 -44.9528)">
<path style="stroke: none; stroke-width: 1; stroke-dasharray: none; stroke-linecap: butt; stroke-dashoffset: 0; stroke-linejoin: miter; stroke-miterlimit: 4; is-custom-font: none; font-file-url: none; fill: rgb(144,191,139); fill-rule: evenodd; opacity: 0.978;" transform=" translate(-547.9689, -495.0472)" d="M 554.5 478.5 C 555.188 489.038 555.855 499.705 556.5 510.5 C 556.043 511.298 555.376 511.631 554.5 511.5 C 554.167 511.5 553.833 511.5 553.5 511.5 C 551.833 511.5 550.167 511.5 548.5 511.5 C 545.552 511.777 542.719 511.444 540 510.5 C 539.5 502.173 539.334 493.84 539.5 485.5 C 544.274 485.807 549.107 486.14 554 486.5 C 554.497 483.854 554.664 481.187 554.5 478.5 Z" stroke-linecap="round"/>
</g>
		<g transform="matrix(1 0 0 1 97 -44.5)">
<path style="stroke: none; stroke-width: 1; stroke-dasharray: none; stroke-linecap: butt; stroke-dashoffset: 0; stroke-linejoin: miter; stroke-miterlimit: 4; is-custom-font: none; font-file-url: none; fill: rgb(144,192,140); fill-rule: evenodd; opacity: 0.995;" transform=" translate(-637, -495.5)" d="M 633.5 479.5 C 633.5 485.5 633.5 491.5 633.5 497.5 C 640.167 497.5 646.833 497.5 653.5 497.5 C 654.5 497.5 655.5 497.5 656.5 497.5 C 656.5 502.167 656.5 506.833 656.5 511.5 C 654.167 511.5 651.833 511.5 649.5 511.5 C 638.833 511.5 628.167 511.5 617.5 511.5 C 617.5 501.167 617.5 490.833 617.5 480.5 C 622.927 480.782 628.26 480.449 633.5 479.5 Z" stroke-linecap="round"/>
</g>
		<g transform="matrix(1 0 0 1 143.1074 -47)">
<path style="stroke: none; stroke-width: 1; stroke-dasharray: none; stroke-linecap: butt; stroke-dashoffset: 0; stroke-linejoin: miter; stroke-miterlimit: 4; is-custom-font: none; font-file-url: none; fill: rgb(145,192,140); fill-rule: evenodd; opacity: 0.978;" transform=" translate(-683.1074, -493)" d="M 678.5 474.5 C 678.5 475.5 678.5 476.5 678.5 477.5 C 678.5 484.167 678.5 490.833 678.5 497.5 C 686.833 497.5 695.167 497.5 703.5 497.5 C 704.103 502.619 703.436 507.285 701.5 511.5 C 699.833 511.5 698.167 511.5 696.5 511.5 C 685.167 511.5 673.833 511.5 662.5 511.5 C 662.5 499.833 662.5 488.167 662.5 476.5 C 663.117 476.611 663.617 476.944 664 477.5 C 669.049 477.087 673.882 476.087 678.5 474.5 Z" stroke-linecap="round"/>
</g>
		<g transform="matrix(1 0 0 1 -23 -26.451)">
<path style="stroke: none; stroke-width: 1; stroke-dasharray: none; stroke-linecap: butt; stroke-dashoffset: 0; stroke-linejoin: miter; stroke-miterlimit: 4; is-custom-font: none; font-file-url: none; fill: rgb(5,4,2); fill-rule: evenodd; opacity: 0.201;" transform=" translate(-517, -513.549)" d="M 515.5 511.5 C 516.833 511.5 518.167 511.5 519.5 511.5 C 519.5 512.833 519.5 514.167 519.5 515.5 C 517.585 515.784 515.919 515.451 514.5 514.5 C 515.11 513.609 515.443 512.609 515.5 511.5 Z" stroke-linecap="round"/>
</g>
		<g transform="matrix(1 0 0 1 -20 3.0265)">
<path style="stroke: none; stroke-width: 1; stroke-dasharray: none; stroke-linecap: butt; stroke-dashoffset: 0; stroke-linejoin: miter; stroke-miterlimit: 4; is-custom-font: none; font-file-url: none; fill: rgb(187,167,81); fill-rule: evenodd; opacity: 0.999;" transform=" translate(-520, -543.0266)" d="M 530.5 525.5 C 531.555 528.073 531.722 530.739 531 533.5 C 522.683 538.321 515.849 544.654 510.5 552.5 C 514.214 553.745 517.88 553.579 521.5 552 C 527.016 547.135 531.183 541.302 534 534.5 C 534.711 532.101 534.544 529.768 533.5 527.5 C 534.958 526.218 536.292 526.218 537.5 527.5 C 536.167 528.167 536.167 528.833 537.5 529.5 C 537.5 530.167 537.833 530.5 538.5 530.5 C 537.566 537.968 535.233 544.968 531.5 551.5 C 530.726 552.711 529.893 552.711 529 551.5 C 528.667 552.833 528.333 554.167 528 555.5 C 523.577 559.413 518.41 561.079 512.5 560.5 C 510.735 559.539 508.735 559.205 506.5 559.5 C 504.201 557.074 502.535 554.24 501.5 551 C 502.32 547.526 503.82 544.359 506 541.5 C 511.784 535.513 518.284 530.347 525.5 526 C 527.134 525.506 528.801 525.34 530.5 525.5 Z" stroke-linecap="round"/>
</g>
		<g transform="matrix(1 0 0 1 61.6428 3.4815)">
<path style="stroke: none; stroke-width: 1; stroke-dasharray: none; stroke-linecap: butt; stroke-dashoffset: 0; stroke-linejoin: miter; stroke-miterlimit: 4; is-custom-font: none; font-file-url: none; fill: rgb(188,169,82); fill-rule: evenodd; opacity: 0.999;" transform=" translate(-601.6428, -543.4816)" d="M 608.5 526.5 C 609.167 526.5 609.833 526.5 610.5 526.5 C 611.167 526.5 611.5 526.833 611.5 527.5 C 612.167 527.5 612.5 527.833 612.5 528.5 C 613.582 529.594 614.248 530.927 614.5 532.5 C 613.139 538.045 610.139 542.545 605.5 546 C 597.984 549.668 590.318 552.835 582.5 555.5 C 597.107 556.533 610.44 552.867 622.5 544.5 C 624.403 544.204 626.07 543.537 627.5 542.5 C 629.698 542.409 630.031 543.075 628.5 544.5 C 628.5 545.167 628.167 545.5 627.5 545.5 C 626.508 545.328 625.842 545.662 625.5 546.5 C 625.5 547.167 625.167 547.5 624.5 547.5 C 624.167 546.167 623.833 546.167 623.5 547.5 C 615.844 553.611 607.177 557.611 597.5 559.5 C 593.503 560.052 589.503 560.386 585.5 560.5 C 575.883 562.541 572.216 558.541 574.5 548.5 C 578.672 543.481 582.838 538.481 587 533.5 C 587.414 533.957 587.914 534.291 588.5 534.5 C 592.099 531.41 596.099 528.91 600.5 527 C 603.216 525.788 605.883 525.621 608.5 526.5 Z" stroke-linecap="round"/>
</g>
		<g transform="matrix(1 0 0 1 -9.5 12.7933)">
<path style="stroke: none; stroke-width: 1; stroke-dasharray: none; stroke-linecap: butt; stroke-dashoffset: 0; stroke-linejoin: miter; stroke-miterlimit: 4; is-custom-font: none; font-file-url: none; fill: rgb(189,169,82); fill-rule: evenodd; opacity: 0.999;" transform=" translate(-530.5, -552.7932)" d="M 574.5 548.5 C 573.275 549.937 572.275 551.604 571.5 553.5 C 570.423 554.705 569.09 555.372 567.5 555.5 C 566.883 555.611 566.383 555.944 566 556.5 C 565.505 558.473 565.338 560.473 565.5 562.5 C 564.864 565.106 564.864 567.606 565.5 570 C 570.5 570.333 575.5 570.667 580.5 571 C 573.432 576.992 566.599 576.825 560 570.5 C 559.333 566.833 559.333 563.167 560 559.5 C 562.03 553.106 564.864 547.106 568.5 541.5 C 568.167 541.167 567.833 540.833 567.5 540.5 C 564.95 541.942 562.284 543.108 559.5 544 C 556.076 548.148 552.409 552.148 548.5 556 C 544.982 556.415 542.649 558.248 541.5 561.5 C 539.998 562.083 538.665 562.916 537.5 564 C 521.898 567.29 506.232 570.29 490.5 573 C 487.382 573.873 484.382 575.039 481.5 576.5 C 481.167 576.167 480.833 575.833 480.5 575.5 C 485.854 572.157 491.52 569.323 497.5 567 C 508.685 563.87 520.019 561.037 531.5 558.5 C 532.554 558.68 533.554 559.013 534.5 559.5 C 539.989 550.555 544.822 541.221 549 531.5 C 551.228 529.887 553.728 529.22 556.5 529.5 C 556.343 530.873 556.51 532.207 557 533.5 C 562.114 528.382 567.614 527.715 573.5 531.5 C 576.057 530.18 577.724 531.013 578.5 534 C 576.146 535.378 576.146 536.878 578.5 538.5 C 576.7 541.638 575.367 544.971 574.5 548.5 Z" stroke-linecap="round"/>
</g>
		<g transform="matrix(1 0 0 1 -57.561 -14.0502)">
<path style="stroke: none; stroke-width: 1; stroke-dasharray: none; stroke-linecap: butt; stroke-dashoffset: 0; stroke-linejoin: miter; stroke-miterlimit: 4; is-custom-font: none; font-file-url: none; fill: rgb(188,168,82); fill-rule: evenodd; opacity: 0.999;" transform=" translate(-482.4391, -525.9499)" d="M 526.5 485.5 C 527.478 485.811 528.145 486.478 528.5 487.5 C 527.826 489.195 527.159 490.862 526.5 492.5 C 522.584 498.662 518.917 504.995 515.5 511.5 C 515.443 512.609 515.11 513.609 514.5 514.5 C 513.512 515.795 512.512 517.128 511.5 518.5 C 502.479 532.696 493.812 547.196 485.5 562 C 488.433 562.296 491.266 561.796 494 560.5 C 494.833 560.833 495.667 561.167 496.5 561.5 C 493.025 564.827 488.858 566.493 484 566.5 C 479.299 566.742 477.799 564.742 479.5 560.5 C 479 560.167 478.5 559.833 478 559.5 C 471.8 561.86 465.966 564.86 460.5 568.5 C 459.226 566.15 457.893 566.317 456.5 569 C 435.39 570.937 430.89 563.437 443 546.5 C 448.077 542.376 453.577 538.876 459.5 536 C 464.762 534.561 470.096 534.228 475.5 535 C 477.305 535.972 478.972 537.139 480.5 538.5 C 482.054 542.295 480.721 544.295 476.5 544.5 C 472.524 543.558 468.524 543.391 464.5 544 C 457.817 547.34 451.651 551.507 446 556.5 C 444.504 558.45 444.337 560.45 445.5 562.5 C 457.424 562.687 468.757 560.02 479.5 554.5 C 480.345 552.238 481.678 551.571 483.5 552.5 C 484.252 548.808 485.086 545.142 486 541.5 C 490.239 534.679 494.405 527.845 498.5 521 C 497.978 520.439 497.645 519.772 497.5 519 C 498.711 516.08 500.044 513.247 501.5 510.5 C 502.885 509.426 504.051 508.093 505 506.5 C 505 507.833 505 509.167 505 510.5 C 507.682 508.623 508.182 506.29 506.5 503.5 C 507.399 500.605 508.733 497.938 510.5 495.5 C 511.458 495.047 512.292 494.381 513 493.5 C 514.461 489.768 516.294 486.268 518.5 483 C 521.775 482.018 524.441 482.851 526.5 485.5 Z" stroke-linecap="round"/>
</g>
		<g transform="matrix(1 0 0 1 54.5 0.7236)">
<path style="stroke: none; stroke-width: 1; stroke-dasharray: none; stroke-linecap: butt; stroke-dashoffset: 0; stroke-linejoin: miter; stroke-miterlimit: 4; is-custom-font: none; font-file-url: none; fill: rgb(34,31,18); fill-rule: evenodd; opacity: 0.478;" transform=" translate(-594.5, -540.7236)" d="M 599.5 536.5 C 600.552 536.351 601.552 536.517 602.5 537 C 597.771 541.155 592.438 543.822 586.5 545 C 590.739 541.91 595.072 539.077 599.5 536.5 Z" stroke-linecap="round"/>
</g>
		<g transform="matrix(1 0 0 1 87.2498 2.0002)">
<path style="stroke: none; stroke-width: 1; stroke-dasharray: none; stroke-linecap: butt; stroke-dashoffset: 0; stroke-linejoin: miter; stroke-miterlimit: 4; is-custom-font: none; font-file-url: none; fill: rgb(0,0,0); fill-rule: evenodd; opacity: 0.004;" transform=" translate(-627.2499, -542.0001)" d="M 627.5 542.5 C 626.833 541.167 626.833 541.167 627.5 542.5 Z" stroke-linecap="round"/>
</g>
		<g transform="matrix(1 0 0 1 27.4701 19)">
<path style="stroke: none; stroke-width: 1; stroke-dasharray: none; stroke-linecap: butt; stroke-dashoffset: 0; stroke-linejoin: miter; stroke-miterlimit: 4; is-custom-font: none; font-file-url: none; fill: rgb(87,78,38); fill-rule: evenodd; opacity: 0.51;" transform=" translate(-567.4701, -559)" d="M 567.5 555.5 C 568.091 556.151 568.757 556.818 569.5 557.5 C 568.846 559.858 567.513 561.525 565.5 562.5 C 565.338 560.473 565.505 558.473 566 556.5 C 566.383 555.944 566.883 555.611 567.5 555.5 Z" stroke-linecap="round"/>
</g>
		<g transform="matrix(1 0 0 1 -30.5 20.2238)">
<path style="stroke: none; stroke-width: 1; stroke-dasharray: none; stroke-linecap: butt; stroke-dashoffset: 0; stroke-linejoin: miter; stroke-miterlimit: 4; is-custom-font: none; font-file-url: none; fill: rgb(96,86,42); fill-rule: evenodd; opacity: 0.553;" transform=" translate(-509.5, -560.2238)" d="M 506.5 559.5 C 508.735 559.205 510.735 559.539 512.5 560.5 C 510.402 561.484 508.402 561.151 506.5 559.5 Z" stroke-linecap="round"/>
</g>
		<g transform="matrix(1 0 0 1 51.5 21.5)">
<path style="stroke: none; stroke-width: 1; stroke-dasharray: none; stroke-linecap: butt; stroke-dashoffset: 0; stroke-linejoin: miter; stroke-miterlimit: 4; is-custom-font: none; font-file-url: none; fill: rgb(86,77,38); fill-rule: evenodd; opacity: 0.396;" transform=" translate(-591.5, -561.5)" d="M 597.5 559.5 C 594.982 561.061 592.149 562.394 589 563.5 C 587.636 562.629 586.47 561.629 585.5 560.5 C 589.503 560.386 593.503 560.052 597.5 559.5 Z" stroke-linecap="round"/>
</g>
</g>
</g>
</svg>